<?xml version="1.0" standalone="no"?>
<!-- Generator: Adobe Fireworks 10, Export SVG Extension by Aaron Beall (http://fireworks.abeall.com) . Version: 0.6.1  -->
<!DOCTYPE svg PUBLIC "-//W3C//DTD SVG 1.1//EN" "http://www.w3.org/Graphics/SVG/1.1/DTD/svg11.dtd">
<svg id="saiph-logo-Page%201" viewBox="0 0 512 512" style="background-color:#ffffff00" version="1.1"
	xmlns="http://www.w3.org/2000/svg" xmlns:xlink="http://www.w3.org/1999/xlink" xml:space="preserve"
	x="0px" y="0px" width="512px" height="512px"
>
	<g id="Layer%201">
		<g>
			<path id="st0" d="M 252.8908 449.2503 L 251.6526 142.3371 L 256.0404 142.3371 L 255.4751 464.2388 L 252.8908 449.2503 L 252.8908 449.2503 ZM 260.6166 448.1222 L 262.7432 141.7193 L 262.7432 118.995 C 279.4599 117.5176 293.9692 118.1891 304.7906 122.46 C 307.967 117.8131 308.0478 113.1124 304.7906 108.358 C 294.1576 112.5483 279.9982 113.8913 262.8509 112.8438 L 262.8509 56.4358 C 262.4471 50.3921 264.6275 44.2409 268.0193 37.1764 C 265.3275 29.2256 247.507 28.6616 244.2499 37.1764 C 248.53 43.4619 249.3914 49.5056 249.4183 56.4358 L 249.2029 113.3541 C 233.563 114.0794 219.0268 113.5153 207.99 108.8146 C 203.5215 112.9244 203.9522 118.3771 207.99 123.2389 C 219.8344 118.1354 235.8512 116.9804 250.7643 120.4454 L 250.7643 141.4776 L 249.6606 141.4776 L 251.1142 449.7876 L 256.2827 481 L 260.6166 448.1222 L 260.6166 448.1222 Z" fill="#808080"/>
			<path id="st1" d="M 158.6745 197.2946 L 242.1232 180.0767 L 242.2309 202.3982 L 180.6135 215.0766 L 180.6135 223.7258 L 158.6745 218.0581 L 158.6745 197.2946 Z" fill="#f03a9e"/>
			<path id="st12" d="M 394 162.456 L 394 276.5344 L 372.088 270.8667 L 333.9708 261.0088 L 333.9708 215.0766 L 270.0383 201.9147 L 270.1728 179.6201 L 355.9097 197.2946 L 355.9097 244.0863 L 372.088 248.2767 L 372.088 180.3454 L 270.3074 159.7699 L 270.442 141.7462 L 270.442 137.5021 L 394 162.456 Z" fill="#f03a9e"/>
			<path id="st13" d="M 242.6617 294.2627 L 118 262.0027 L 118 162.456 L 241.9079 137.4215 L 242.0156 159.6893 L 139.9121 180.3454 L 139.9121 245.0803 L 242.554 271.6457 L 242.6617 294.2627 Z" fill="#f03a9e"/>
			<path id="st14" d="M 243.2539 420.1599 L 243.3616 443.1798 C 220.4805 436.0616 200.2374 426.5529 183.1169 414.8952 C 150.9488 393.0304 129.0098 359.5885 121.1764 322.01 C 119.5882 314.3815 118.5922 306.565 118.1885 298.6678 L 184.2206 315.7514 C 186.9125 325.0184 191.1119 333.7482 196.6302 341.5379 C 202.2563 349.5962 209.3091 356.6875 217.5463 362.382 C 225.0298 367.593 233.59 372.1057 243.0924 375.8931 L 243.2001 399.2621 C 228.8522 394.3197 216.0388 387.9805 205.0559 380.3251 C 188.2853 368.6675 175.4181 352.5509 167.5578 334.0168 L 145.3766 328.2686 C 153.6407 355.9623 171.1111 380.2714 195.4727 396.8447 C 209.1207 406.1922 225.1643 413.9819 243.2539 420.1599 L 243.2539 420.1599 Z" fill="#f03a9e"/>
			<path id="st15" d="M 268.6384 401.4915 L 268.7999 378.7941 C 286.9972 373.1264 303.2024 359.3467 314.9121 344.8418 L 337.9547 350.7781 C 334.8321 355.237 331.3865 359.6422 327.6179 363.9131 C 317.0387 375.8394 296.2303 395.3404 268.6384 401.4915 L 268.6384 401.4915 Z" fill="#f03a9e"/>
			<path id="st16" d="M 394 310.8358 L 394 313.4951 C 394 319.1091 392.8156 325.5557 390.6082 332.5396 C 387.8087 341.4036 383.3132 351.1005 377.391 361.0121 C 355.7751 397.1132 315.1813 435.6856 268.3423 444.7646 L 268.5039 422.3894 C 305.4636 413.5522 336.9587 383.1456 355.2098 355.237 L 355.1828 355.237 C 361.805 345.1373 366.6773 335.333 369.4499 327.033 L 269.3383 301.1391 L 269.4998 278.6027 L 372.088 305.1682 L 394 310.8358 L 394 310.8358 Z" fill="#f03a9e"/>
		</g>
	</g>
</svg>